<?xml version="1.0" standalone="no"?>
<!DOCTYPE svg PUBLIC "-//W3C//DTD SVG 1.1//EN" "http://www.w3.org/Graphics/SVG/1.1/DTD/svg11.dtd">
<svg t="1711271046207" class="icon" viewBox="0 0 1024 1024" version="1.1" xmlns="http://www.w3.org/2000/svg" p-id="3864" xmlns:xlink="http://www.w3.org/1999/xlink" width="81" height="81">
	<path d="M882.554517 1024H139.848512A98.360616 98.360616 0 0 1 41.140578 925.292066V98.673897A98.360616 98.360616 0 0 1 139.848512-0.034037H677.428177a23.478735 23.478735 0 0 1 18.268956 7.29369l277.854846 252.361664a29.38315 29.38315 0 0 1 9.16921 20.144476v643.650753a100.3056 100.3056 0 0 1-100.166672 100.583454zM139.848512 54.911759a44.873558 44.873558 0 0 0-45.707122 43.901065v824.673185a44.526239 44.526239 0 0 0 43.901066 43.901066h744.512061a44.526239 44.526239 0 0 0 43.901066-43.901066V292.61658L666.522374 54.911759z" p-id="3865" fill="currentColor">
	</path>
	<path d="M662.840797 764.41411a27.785485 27.785485 0 0 1-20.144476-7.29369l-303.55642-305.640331a27.160311 27.160311 0 0 1 38.413432-38.413433l305.640332 305.640331a26.535138 26.535138 0 0 1 0 38.413433 38.343969 38.343969 0 0 1-20.352868 7.29369z" p-id="3866" fill="currentColor">
	</path>
	<path d="M359.214914 764.344646a27.785485 27.785485 0 0 1-20.144477-7.29369 26.535138 26.535138 0 0 1 0-38.413432l305.640331-305.640332a27.160311 27.160311 0 0 1 38.413433 38.413433l-305.640331 303.55642a25.423718 25.423718 0 0 1-18.268956 9.377601z" p-id="3867" fill="currentColor">
	</path>
	<path d="M949.586999 307.273423h-173.659279a124.478971 124.478971 0 0 1-124.340044-124.340044V31.155169a30.980815 30.980815 0 0 1 16.4629-25.632109 28.619049 28.619049 0 0 1 29.244222 5.487633l270.908476 248.680088a25.979428 25.979428 0 0 1 7.293689 29.244222 25.215327 25.215327 0 0 1-25.632109 18.268956zM708.200601 95.131248v89.608188a69.463712 69.463712 0 0 0 69.463712 69.463711h102.458974z" p-id="3868" fill="currentColor">
	</path>
</svg>
