<svg xmlns="http://www.w3.org/2000/svg" width="15" height="16.094" viewBox="0 0 15 16.094"><defs><style>.a{fill:#fff;fill-rule:evenodd;}</style></defs><path class="a" d="M361.75,420.188a.781.781,0,1,0-1.562,0v.937h-4.376v-.937a.781.781,0,1,0-1.562,0v.937h-.625a3.125,3.125,0,0,0-3.125,3.125v8.125a3.125,3.125,0,0,0,3.125,3.125h8.75a3.125,3.125,0,0,0,3.125-3.125V424.25a3.125,3.125,0,0,0-3.125-3.125h-.625Zm-7.5,3.25v-.75h-.625a1.562,1.562,0,0,0-1.563,1.562v1.562h11.876V424.25a1.562,1.562,0,0,0-1.563-1.562h-.625v.75a.781.781,0,0,1-1.562,0v-.75h-4.376v.75a.781.781,0,0,1-1.562,0Zm9.688,3.937H352.062v5a1.563,1.563,0,0,0,1.563,1.563h8.75a1.563,1.563,0,0,0,1.563-1.563Z" transform="translate(-350.5 -419.406)"/></svg>