<svg xmlns="http://www.w3.org/2000/svg" width="15.051" height="15.051" viewBox="0 0 15.051 15.051"><defs><style>.a{fill:#fff;}</style></defs><g transform="translate(-63.99 -63.989)"><path class="a" d="M576.44,358.93a.536.536,0,0,1-.537-.537v-5.914a.537.537,0,0,1,1.075,0v5.912A.539.539,0,0,1,576.44,358.93Z" transform="translate(-503.315 -283.115)"/><path class="a" d="M384.472,358.93a.536.536,0,0,1-.537-.537v-5.914a.537.537,0,0,1,1.075,0v5.912A.539.539,0,0,1,384.472,358.93Z" transform="translate(-314.571 -283.115)"/><path class="a" d="M78.5,66.676H75.816V65.6a1.607,1.607,0,0,0-1.6-1.612H68.826A1.613,1.613,0,0,0,67.214,65.6v1.075H64.527a.537.537,0,0,0,0,1.075H78.5a.537.537,0,0,0,0-1.075ZM68.289,65.6a.54.54,0,0,1,.537-.537h5.389a.527.527,0,0,1,.526.537v1.075H68.289V65.6Z"/><path class="a" d="M201.276,361.816h-7.524a1.613,1.613,0,0,1-1.612-1.612v-8.07a.537.537,0,0,1,1.075,0v8.07a.538.538,0,0,0,.537.537h7.527a.536.536,0,0,0,.537-.537v-8.05a.537.537,0,1,1,1.075,0v8.05A1.619,1.619,0,0,1,201.276,361.816Z" transform="translate(-125.998 -282.776)"/></g></svg>